<?xml version="1.0" standalone="no"?>
<!DOCTYPE svg PUBLIC "-//W3C//DTD SVG 20010904//EN"
 "http://www.w3.org/TR/2001/REC-SVG-20010904/DTD/svg10.dtd">
<svg version="1.0" xmlns="http://www.w3.org/2000/svg"
 width="332.000000pt" height="63.000000pt" viewBox="0 0 332.000000 63.000000"
 preserveAspectRatio="xMidYMid meet">

<g transform="translate(0.000000,63.000000) scale(0.100000,-0.100000)"
fill="#000000" stroke="none">
<path d="M2061 613 c-19 -16 -21 -30 -23 -143 l-3 -125 -338 -5 c-371 -5 -357
-3 -357 -67 0 -22 6 -36 19 -43 27 -14 1535 -14 1562 0 22 12 27 83 7 97 -7 4
-164 10 -348 13 l-335 5 -2 115 c-1 63 -2 122 -3 131 -1 39 -138 55 -179 22z"/>
<path d="M0 140 c0 -5 16 -10 35 -10 39 0 38 1 26 -52 -5 -21 -5 -38 -1 -38 5
0 13 19 17 43 8 40 11 42 46 45 69 6 38 22 -43 22 -47 0 -80 -4 -80 -10z"/>
<path d="M167 113 c-3 -5 -8 -24 -12 -43 -3 -19 -9 -43 -11 -52 -7 -26 13 -22
21 3 5 15 13 19 27 15 58 -15 119 32 88 69 -13 16 -105 22 -113 8z m101 -35
c-2 -18 -11 -24 -36 -26 -47 -5 -61 3 -55 27 4 17 13 21 50 21 40 0 44 -2 41
-22z"/>
<path d="M327 108 c-9 -7 -19 -25 -23 -40 l-6 -28 61 0 c56 0 61 2 67 25 10
41 -1 55 -44 55 -21 0 -46 -6 -55 -12z m88 -18 c-3 -5 -21 -10 -40 -10 -19 0
-37 5 -40 10 -4 6 12 10 40 10 28 0 44 -4 40 -10z m-10 -30 c-3 -5 -24 -10
-46 -10 -21 0 -39 5 -39 10 0 6 21 10 46 10 27 0 43 -4 39 -10z"/>
<path d="M452 80 c-9 -38 -1 -57 12 -25 4 10 20 15 52 15 36 0 45 -3 41 -15
-4 -8 -2 -17 3 -20 5 -3 14 11 19 32 15 53 13 62 -7 35 -15 -19 -26 -23 -58
-20 -21 2 -39 8 -39 15 0 29 -13 20 -23 -17z"/>
<path d="M616 105 c-9 -9 -16 -27 -16 -40 0 -32 52 -43 101 -22 l34 16 -47 -6
c-64 -8 -82 0 -67 28 9 19 18 21 60 17 34 -4 49 -2 46 6 -6 19 -92 19 -111 1z"/>
<path d="M754 93 c-3 -16 -7 -34 -10 -41 -2 -6 1 -12 6 -12 4 0 11 13 15 30 6
28 10 30 52 30 45 0 45 0 41 -30 -3 -16 -1 -30 4 -30 9 0 13 8 22 53 l6 27
-65 0 c-62 0 -65 -1 -71 -27z"/>
<path d="M917 108 c-9 -7 -18 -24 -19 -38 -3 -21 3 -26 33 -34 26 -6 44 -5 65
5 32 15 45 56 22 70 -20 13 -82 11 -101 -3z m91 -30 c-3 -20 -10 -23 -50 -26
-48 -3 -54 2 -42 32 4 11 19 16 51 16 40 0 44 -2 41 -22z"/>
<path d="M1042 69 c-14 -61 -15 -69 -3 -69 5 0 11 10 14 21 4 15 11 20 23 15
32 -12 85 5 95 31 14 38 -4 53 -66 53 l-52 0 -11 -51z m118 22 c0 -31 -14 -41
-56 -41 -44 0 -49 5 -38 34 4 11 19 16 50 16 24 0 44 -4 44 -9z"/>
<path d="M1200 110 c0 -5 10 -10 21 -10 18 0 21 -4 16 -30 -4 -16 -2 -32 3
-35 5 -3 12 10 16 30 5 30 10 35 35 35 16 0 29 5 29 10 0 6 -27 10 -60 10 -33
0 -60 -4 -60 -10z"/>
<path d="M1337 103 c-3 -10 -8 -31 -11 -48 -6 -30 -6 -30 10 -7 13 17 26 22
61 22 36 0 44 -3 39 -15 -3 -8 -1 -15 4 -15 8 0 11 8 26 63 3 9 1 17 -4 17 -5
0 -12 -9 -15 -21 -5 -17 -12 -20 -49 -17 -24 2 -43 8 -43 15 0 20 -13 25 -18
6z"/>
<path d="M1483 83 l-11 -43 63 0 c46 0 64 4 69 15 7 19 -23 35 -68 35 -25 0
-36 5 -38 18 -2 10 -9 -1 -15 -25z m97 -23 c0 -5 -20 -10 -45 -10 -25 0 -45 5
-45 10 0 6 20 10 45 10 25 0 45 -4 45 -10z"/>
<path d="M1637 103 c-3 -10 -8 -28 -12 -40 -3 -13 -2 -23 3 -23 5 0 13 16 17
36 7 38 1 59 -8 27z"/>
<path d="M1688 108 c-9 -7 -19 -23 -23 -35 -5 -19 -1 -25 22 -34 44 -17 94 0
106 35 7 21 6 30 -4 37 -21 13 -83 11 -101 -3z m87 -18 c-3 -5 -21 -10 -40
-10 -19 0 -37 5 -40 10 -4 6 12 10 40 10 28 0 44 -4 40 -10z m0 -30 c-3 -5
-26 -10 -51 -10 -24 0 -44 5 -44 10 0 6 23 10 51 10 31 0 48 -4 44 -10z"/>
</g>
</svg>
